<svg width="17" height="17" viewBox="0 0 17 17" fill="none" xmlns="http://www.w3.org/2000/svg">
<path d="M2.9 0.800002C2.72089 0.800002 2.54158 0.86823 2.40508 1.00508L1.00508 2.40508C0.73138 2.67878 0.73138 3.12192 1.00508 3.39492L6.11016 8.5L1.00508 13.6051C0.73138 13.8788 0.73138 14.3219 1.00508 14.5949L2.40508 15.9949C2.67878 16.2686 3.12192 16.2686 3.39492 15.9949L8.5 10.8898L13.6051 15.9949C13.8781 16.2686 14.3219 16.2686 14.5949 15.9949L15.9949 14.5949C16.2686 14.3212 16.2686 13.8781 15.9949 13.6051L10.8898 8.5L15.9949 3.39492C16.2686 3.12192 16.2686 2.67808 15.9949 2.40508L14.5949 1.00508C14.3212 0.73138 13.8781 0.73138 13.6051 1.00508L8.5 6.11016L3.39492 1.00508C3.25807 0.86823 3.07911 0.800002 2.9 0.800002Z" fill="black"/>
</svg>
